<svg width="45" height="59" viewBox="0 0 45 59" fill="none" xmlns="http://www.w3.org/2000/svg">
<g id="Group 1000011421">
<g id="Group">
<g id="Group_2">
<path id="Vector" d="M10.7953 31.1263C11.6081 31.3814 12.4163 31.6855 13.197 32.0277C13.999 32.3791 14.7889 32.7809 15.5451 33.2209C15.6062 33.256 15.6719 33.2728 15.7361 33.2728C15.8675 33.2728 15.9958 33.204 16.0661 33.0834C16.1715 32.9016 16.1104 32.6678 15.9271 32.5609C15.1464 32.1071 14.329 31.6931 13.5025 31.3295C12.6959 30.975 11.8617 30.6619 11.023 30.3991C10.8213 30.3364 10.6074 30.448 10.5448 30.6481C10.4821 30.8498 10.5937 31.0637 10.7938 31.1263H10.7953Z" fill="white"/>
<path id="Vector_2" d="M8.87775 35.3358C8.91747 35.3495 8.95872 35.3556 8.99844 35.3556C9.15886 35.3556 9.30705 35.2548 9.36052 35.0944C9.67982 34.1334 10.0465 33.1877 10.4513 32.2848C10.5369 32.0923 10.4513 31.8662 10.2588 31.7807C10.0663 31.6951 9.84024 31.7807 9.75468 31.9732C9.33913 32.899 8.96331 33.8691 8.63637 34.8545C8.57067 35.0546 8.67914 35.2716 8.87928 35.3373L8.87775 35.3358Z" fill="white"/>
<path id="Vector_3" d="M18.8746 55.5793C18.1489 54.7879 17.4247 53.9095 16.6639 52.895C14.8902 50.4827 13.6848 47.5051 13.0828 44.0462C12.7391 41.3559 13.697 36.632 15.0567 34.3221C15.1637 34.1403 15.1025 33.9065 14.9207 33.7996C14.7389 33.6926 14.5052 33.7537 14.3982 33.9355C12.9438 36.409 11.9554 41.2795 12.3266 44.1532L12.3297 44.17C12.953 47.7495 14.2042 50.8371 16.0513 53.3503C16.1445 53.474 16.2361 53.5963 16.3278 53.7154C13.561 51.407 10.672 48.3561 9.2497 44.8651C8.18485 42.0571 8.04735 39.7151 8.77609 36.7818C8.82651 36.577 8.70276 36.3693 8.49804 36.3188C8.29332 36.2684 8.08555 36.3922 8.03513 36.5969C7.26514 39.6952 7.4118 42.1686 8.53929 45.1447C10.4643 49.8685 14.9177 53.775 18.3108 56.2164C18.3857 56.2714 18.4743 56.2989 18.5629 56.2989C18.6668 56.2989 18.7692 56.2622 18.8501 56.1889C18.9357 56.111 18.9876 55.9994 18.9907 55.8833C18.9937 55.7718 18.951 55.6618 18.8746 55.5793Z" fill="white"/>
<path id="Vector_4" d="M12.3525 32.9256C12.2013 32.834 12.0042 32.8813 11.9125 33.0341C10.6582 35.0996 9.75073 39.2017 10.0089 41.6522C10.2427 43.2136 10.6154 44.6756 11.1196 45.9987C11.1685 46.127 11.2907 46.2049 11.419 46.2049C11.4572 46.2049 11.4954 46.1988 11.5336 46.1835C11.6986 46.1209 11.7826 45.936 11.7185 45.7695C11.2311 44.4892 10.869 43.0715 10.6429 41.5697C10.4031 39.2857 11.2846 35.2998 12.4594 33.3641C12.5511 33.2129 12.5038 33.0158 12.351 32.9241L12.3525 32.9256Z" fill="white"/>
</g>
<g id="Group_3">
<path id="Vector_5" d="M30.5175 10.7928C26.3329 8.61269 22.4005 6.94132 20.1119 6.02008C14.3904 11.7461 12.991 17.9916 12.991 17.9916C5.87164 18.8181 4.28125 27.8441 4.28125 27.8441L11.613 25.8519C11.1424 27.8273 11.4327 29.2634 11.4327 29.2634L17.6461 32.1234C18.8866 31.2342 19.8231 29.5491 19.8231 29.5491L22.5028 36.4148C27.8851 31.9645 25.7677 23.4136 25.7677 23.4136C28.9836 18.9587 30.2226 14.5541 30.5159 10.7897L30.5175 10.7928ZM22.7503 16.2011C21.2928 16.2011 20.1119 15.0201 20.1119 13.5626C20.1119 12.1051 21.2928 10.9242 22.7503 10.9242C24.2078 10.9242 25.3888 12.1051 25.3888 13.5626C25.3888 15.0201 24.2078 16.2011 22.7503 16.2011Z" fill="white"/>
<path id="Vector_6" d="M30.5889 9.00309C27.0017 7.16825 23.6499 5.71382 21.4102 4.79716C23.413 3.02802 25.8666 1.35818 28.861 0C28.861 0 30.6088 3.66968 30.5889 9.00461V9.00309Z" fill="white"/>
</g>
<path id="Vector_7" d="M18.127 38.547L24.6413 44.542L21.569 44.7329L38.4553 26.9682C38.8694 26.5327 39.5568 26.5159 39.9907 26.93C40.4017 27.3195 40.4368 27.9581 40.0916 28.3936L24.8292 47.5715C24.1173 48.4668 22.8141 48.615 21.9204 47.903C21.8807 47.8771 21.7966 47.7946 21.7569 47.7625L15.0883 41.9402C14.141 41.1137 14.0433 39.6745 14.8698 38.7258C15.7085 37.7618 17.1889 37.6808 18.1285 38.547H18.127Z" fill="white"/>
<g id="Group_4">
<path id="Vector_8" d="M0.588954 15.2825L0.494233 16.0173C0.469789 16.2053 -0.097007 20.6892 0.0145194 26.1296C0.100074 30.2927 0.614929 35.8614 3.85378 42.0198C5.39529 44.95 7.15985 47.179 8.66774 48.8214C8.03525 47.8421 7.48373 46.817 7.04832 45.7475L7.02999 45.7032C6.42041 44.0945 6.13166 42.3406 6.16527 40.4126C4.2296 36.6283 3.40462 33.0732 3.05476 29.9933C2.90809 28.7069 2.8424 27.503 2.8149 26.3985C2.81184 26.29 2.80879 26.18 2.80726 26.0731C2.72629 22.1039 3.03031 18.5916 3.18309 17.1158C5.92236 15.8248 9.41329 14.6729 12.6537 13.7486C13.1105 12.7357 13.7032 11.5807 14.461 10.3524C10.2368 11.4616 5.00724 13.0581 1.25201 14.9525L0.590483 15.2856L0.588954 15.2825Z" fill="white"/>
<path id="Vector_9" d="M44.5079 16.0179L44.4131 15.2831L43.7516 14.95C40.4944 13.3062 36.1281 11.8884 32.2705 10.8174C32.2033 11.7066 32.0857 12.6446 31.9038 13.6194C35.2664 14.5635 38.9545 15.7628 41.8205 17.1133C41.9733 18.5907 42.2773 22.103 42.1948 26.0706C42.1154 29.9282 41.6433 35.0767 38.6764 40.7187C36.4123 45.0224 33.5767 47.7144 32.0536 49.1611C29.2333 51.8378 26.0235 54.053 22.5035 55.7504C21.6388 55.3333 20.794 54.8856 19.9675 54.4075L19.7734 57.4951C20.4762 57.8709 21.1912 58.2269 21.9199 58.563L22.5051 58.8334L23.0902 58.563C27.1174 56.7067 30.7794 54.2241 33.977 51.1885C35.6178 49.6317 38.6703 46.732 41.1483 42.0219C44.3887 35.8635 44.902 30.2964 44.9876 26.1317C45.0991 20.6913 44.5323 16.2089 44.5079 16.0195V16.0179Z" fill="white"/>
</g>
</g>
</g>
</svg>
